<svg xmlns="http://www.w3.org/2000/svg" width="640" height="480" viewBox="0 0 640 480" role="img" aria-label="Desk objects seed image">
  <rect width="640" height="480" fill="#f4f7fb"/>
  <rect x="28" y="270" width="584" height="142" rx="6" fill="#b7c3d0"/>
  <rect x="38" y="282" width="564" height="118" rx="4" fill="#d8e0e8"/>
  <rect x="78" y="160" width="116" height="170" rx="16" fill="#f9fafb" stroke="#1f2937" stroke-width="7"/>
  <rect x="94" y="188" width="84" height="104" rx="8" fill="#93c5fd"/>
  <path d="M190 205c34 3 48 27 34 54-10 20-31 30-54 24" fill="none" stroke="#1f2937" stroke-width="16" stroke-linecap="round"/>
  <rect x="270" y="292" width="205" height="86" rx="8" fill="#2563eb" transform="rotate(-4 372 335)"/>
  <rect x="288" y="300" width="166" height="18" rx="3" fill="#bfdbfe" transform="rotate(-4 371 309)"/>
  <rect x="436" y="176" width="92" height="136" rx="14" fill="#111827"/>
  <rect x="448" y="194" width="68" height="96" rx="7" fill="#22c55e"/>
  <circle cx="482" cy="299" r="5" fill="#e5e7eb"/>
  <rect x="96" y="352" width="166" height="32" rx="6" fill="#374151"/>
  <g fill="#e5e7eb">
    <rect x="108" y="360" width="16" height="7" rx="2"/>
    <rect x="130" y="360" width="16" height="7" rx="2"/>
    <rect x="152" y="360" width="16" height="7" rx="2"/>
    <rect x="174" y="360" width="16" height="7" rx="2"/>
    <rect x="196" y="360" width="16" height="7" rx="2"/>
    <rect x="218" y="360" width="28" height="7" rx="2"/>
    <rect x="118" y="372" width="90" height="7" rx="2"/>
  </g>
  <ellipse cx="540" cy="356" rx="34" ry="20" fill="#64748b"/>
  <line x1="540" y1="336" x2="540" y2="376" stroke="#cbd5e1" stroke-width="3"/>
  <rect x="76" y="163" width="116" height="168" fill="none" stroke="#ef4444" stroke-width="4" stroke-dasharray="10 7"/>
  <rect x="275" y="259" width="205" height="106" fill="none" stroke="#ef4444" stroke-width="4" stroke-dasharray="10 7"/>
  <rect x="435" y="192" width="102" height="134" fill="none" stroke="#ef4444" stroke-width="4" stroke-dasharray="10 7"/>
</svg>
